<svg xmlns="http://www.w3.org/2000/svg" xmlns:xlink="http://www.w3.org/1999/xlink" viewBox="0 0 111 25">
  <defs>
    <style>
      .cls-1 {
        clip-path: url(#clip-logo);
      }

      .cls-2, .cls-3 {
        fill: #fff;
      }

      .cls-2 {
        font-size: 20px;
        font-family: Impact;
      }

      .cls-4 {
        fill: rgba(0,0,0,0);
      }
    </style>
    <clipPath id="clip-logo">
      <rect width="111" height="25"/>
    </clipPath>
  </defs>
  <g id="logo" class="cls-1">
    <rect class="cls-4" width="111" height="25"/>
    <text id="PROSPECT" class="cls-2" transform="translate(27 20)"><tspan x="0" y="0">PROSPECT</tspan></text>
    <path id="archway-solid" class="cls-3" d="M19.6,15.68h-.56V3.36H1.12V15.68H.561a.56.56,0,0,0-.56.56v1.12a.56.56,0,0,0,.56.56h5.6a.56.56,0,0,0,.56-.56V11.2a3.36,3.36,0,1,1,6.72,0v6.16a.56.56,0,0,0,.56.56h5.6a.56.56,0,0,0,.56-.56V16.24A.56.56,0,0,0,19.6,15.68ZM19.6,0H.56A.56.56,0,0,0,0,.56V1.68a.56.56,0,0,0,.56.56H19.6a.56.56,0,0,0,.56-.56V.56A.56.56,0,0,0,19.6,0Z" transform="translate(2.92 3)"/>
  </g>
</svg>
